<?xml version="1.0" encoding="utf-8"?>
<!-- Generator: Adobe Illustrator 16.0.0, SVG Export Plug-In . SVG Version: 6.00 Build 0)  -->
<!DOCTYPE svg PUBLIC "-//W3C//DTD SVG 1.1//EN" "http://www.w3.org/Graphics/SVG/1.1/DTD/svg11.dtd">
<svg version="1.1" id="Layer_1" xmlns="http://www.w3.org/2000/svg" xmlns:xlink="http://www.w3.org/1999/xlink" x="0px" y="0px"
	 width="471.532px" height="293.275px" viewBox="0 0 471.532 293.275" enable-background="new 0 0 471.532 293.275"
	 xml:space="preserve">
<g>
	<path d="M14.855,189.063c-1.8-1.35-3.376-3.186-4.727-5.514c-1.351-2.324-2.44-4.875-3.264-7.652
		c-0.826-2.775-1.428-5.551-1.8-8.329c-0.376-2.774-0.563-5.212-0.563-7.314c0-3.45,0.338-7.013,1.013-10.691
		c0.675-3.675,1.385-7.237,2.138-10.691c0.9-3.9,1.762-7.8,2.588-11.704c0.823-3.9,1.762-7.8,2.813-11.704
		c2.25-8.553,4.987-16.955,8.215-25.208c3.225-8.25,6.189-16.656,8.891-25.209c-0.753,0.45-2.177,1.238-4.277,2.364
		c-2.103,1.125-4.315,2.289-6.64,3.488c-2.328,1.203-4.501,2.251-6.527,3.151c-2.025,0.9-3.341,1.351-3.939,1.351
		c-1.35,0-2.666-0.749-3.938-2.251c-1.277-1.498-2.29-2.775-3.039-3.826l0.45-0.9L0,66.846c0.45-0.45,0.862-0.9,1.238-1.351
		c0.373-0.45,0.862-0.823,1.463-1.125c1.649-0.9,3.337-1.724,5.064-2.476c1.723-0.749,3.412-1.649,5.064-2.701
		c4.649-2.549,9.151-5.324,13.504-8.328c4.351-3,8.701-6.151,13.055-9.453c0.598-0.45,1.199-0.862,1.801-1.238
		c0.598-0.373,1.273-0.563,2.025-0.563c2.1,1.653,4.164,3.752,6.19,6.302c2.025,2.553,3.039,5.254,3.039,8.103
		c0,0.602-0.19,1.463-0.563,2.588c-0.376,1.125-0.826,2.329-1.35,3.602c-0.528,1.276-1.052,2.515-1.576,3.714
		c-0.528,1.203-0.865,2.103-1.013,2.701l-6.978,19.807c-1.653,4.354-3.19,8.743-4.614,13.167c-1.428,4.428-2.813,8.891-4.164,13.392
		c0.45,0.151,1.576,0.225,3.376,0.225c1.8,0,3.788,0,5.964,0c2.173,0,4.238-0.035,6.19-0.112c1.948-0.073,3.376-0.112,4.276-0.112
		c3,0,5.926,0.077,8.778,0.225c2.849,0.151,5.775,0.45,8.778,0.9c0.299-0.598,0.598-1.498,0.9-2.7
		c1.199-4.2,2.701-9.566,4.501-16.093c1.8-6.527,3.826-13.203,6.077-20.032c2.25-6.826,4.614-13.241,7.09-19.244
		c2.476-6,4.913-10.579,7.315-13.73c0.749-1.048,1.576-1.575,2.476-1.575c0.45,0,0.823,0.077,1.125,0.225l1.351,2.476l1.125-0.225
		c0.45,0.45,0.974,1.277,1.576,2.476l-0.45,0.225l1.576,0.9c0.299,0.752,0.71,1.653,1.238,2.701
		c0.524,1.052,0.788,1.952,0.788,2.701c0,1.35-0.264,3.077-0.788,5.177c-0.527,2.103-1.164,4.241-1.913,6.415
		c-0.753,2.177-1.541,4.315-2.363,6.415c-0.827,2.103-1.463,3.903-1.914,5.402c-2.103,6.302-4.09,12.682-5.964,19.131
		c-1.878,6.454-3.64,12.981-5.29,19.582c-3.151,11.557-6.042,22.811-8.666,33.762c-2.627,10.955-4.917,21.911-6.865,32.862
		c-1.952,10.955-3.489,21.98-4.614,33.086c-1.125,11.104-1.688,22.656-1.688,34.662c0,0.9-0.039,1.836-0.112,2.814
		c-0.078,0.973-0.338,1.834-0.788,2.588c-1.653-0.754-3.189-1.463-4.614-2.139c-1.428-0.676-2.666-1.766-3.714-3.264
		c-2.553-3.752-4.276-7.99-5.177-12.717s-1.351-9.268-1.351-13.617c0-7.354,0.412-14.707,1.238-22.059
		c0.823-7.354,1.914-14.664,3.264-21.945c1.351-7.275,2.849-14.516,4.502-21.719c1.649-7.202,3.225-14.405,4.727-21.607
		c0.299-1.801,0.71-3.563,1.238-5.289c0.524-1.724,1.013-3.411,1.463-5.064c-6.453,0.151-12.83,0.45-19.131,0.9
		c-6.302,0.45-12.682,0.753-19.132,0.9c-0.45,1.801-0.978,3.601-1.576,5.401c-0.601,1.801-1.051,3.602-1.351,5.402
		c-1.653,8.103-2.852,15.755-3.601,22.958c-0.752,7.202-1.125,14.856-1.125,22.958c0,1.352-0.039,2.814-0.112,4.389
		c-0.078,1.576-0.264,3.039-0.563,4.391l-4.727-2.928v0.227h-0.675V189.063z M33.086,58.293c-1.351,0.45-3.003,1.203-4.952,2.25
		c-1.952,1.052-3.978,2.216-6.077,3.489c-2.103,1.277-4.164,2.553-6.189,3.826c-2.026,1.277-3.714,2.29-5.064,3.039
		c0.598-0.147,2.061-0.823,4.389-2.025c2.325-1.199,4.8-2.511,7.428-3.939c2.624-1.424,4.987-2.813,7.09-4.164
		C31.81,59.418,32.935,58.595,33.086,58.293z M16.881,60.543c-0.302,0.151-0.602,0.303-0.9,0.45c-0.302,0.151-0.45,0.376-0.45,0.675
		v0.225L16.881,60.543z M21.382,58.293l1.351-1.125c-1.052,0.45-2.103,1.051-3.151,1.801c0.299-0.148,0.598-0.299,0.9-0.45
		C20.781,58.37,21.08,58.293,21.382,58.293z M38.038,47.264l-0.225-0.225c-0.45,0.302-1.315,0.9-2.588,1.8
		c-1.276,0.9-2.588,1.801-3.939,2.701c-1.35,0.9-2.627,1.766-3.826,2.588c-1.203,0.826-2.025,1.315-2.476,1.463l-0.9,0.9
		c2.398-1.498,4.8-2.961,7.202-4.389C33.685,50.679,35.935,49.064,38.038,47.264z M29.26,56.492l-1.351,1.125h0.45
		c0.598,0,0.9-0.299,0.9-0.9V56.492z M35.112,53.566l-0.225-0.45l-0.45,0.675L35.112,53.566z"/>
	<path d="M156.653,169.256c0.299-0.748,0.675-1.385,1.125-1.913c0.45-0.524,0.9-1.16,1.351-1.913
		c-1.203,3.003-2.778,6.38-4.727,10.128c-1.952,3.752-4.09,7.467-6.415,11.141c-2.328,3.68-4.765,7.164-7.315,10.467
		c-2.553,3.299-5.029,5.926-7.428,7.877c-2.553-0.9-4.614-1.764-6.189-2.588c-1.576-0.826-2.363-2.813-2.363-5.965
		c0-6.15,0.563-12.189,1.688-18.119c1.125-5.926,2.286-11.889,3.489-17.893l-7.653,7.877c-1.203,1.203-2.515,2.627-3.939,4.277
		c-1.428,1.652-2.926,3.229-4.501,4.727c-1.576,1.502-3.264,2.777-5.064,3.826c-1.801,1.051-3.679,1.576-5.627,1.576
		c-1.351,0-2.853-0.299-4.502-0.9c-1.653-0.598-3.189-1.426-4.614-2.477c-1.428-1.049-2.588-2.25-3.489-3.602
		c-0.9-1.35-1.351-2.848-1.351-4.502c0-3.299,0.788-7.163,2.363-11.59c1.576-4.425,3.601-8.778,6.077-13.055
		s5.177-8.251,8.103-11.93c2.926-3.675,5.739-6.488,8.44-8.44c2.25-1.649,4.727-3.112,7.427-4.389
		c2.701-1.273,5.476-1.913,8.328-1.913c2.849,0,5.437,0.675,7.765,2.025c2.325,1.351,4.537,3.004,6.64,4.952
		c0.598,0.602,0.9,1.202,0.9,1.801c0,0.302-0.151,0.752-0.45,1.35l-6.527-1.8c-4.051,1.351-7.617,3.453-10.691,6.302
		c-3.077,2.853-5.852,6.042-8.328,9.565c-2.476,3.528-4.653,7.28-6.527,11.254c-1.878,3.979-3.64,7.766-5.289,11.367l0.45,0.45
		l3.601-2.701l21.607-19.356c1.948-1.801,3.45-3.714,4.501-5.74c1.048-2.025,2.849-3.563,5.402-4.613l0.225,2.25l-0.675,0.226
		c-0.303,0.45-0.415,0.714-0.338,0.788c0.074,0.077-0.112,0.337-0.563,0.787l0.675-0.225l0.225-1.126l0.675-0.45
		c0.299-0.598,0.75-0.9,1.351-0.9c0.299,0,0.675,0.226,1.125,0.676l-0.225,1.575l0.9-0.45v-0.225l1.125,0.45
		c-0.9,2.852-1.839,5.627-2.813,8.328c-0.978,2.7-1.991,5.401-3.039,8.103l-0.225,0.225c0.147,0,0.225-0.073,0.225-0.225
		c0.45-0.45,0.675-0.749,0.675-0.9c1.199-2.55,2.286-5.064,3.264-7.54c0.974-2.476,2.061-4.913,3.263-7.315
		c1.351,0.303,2.026,0.978,2.026,2.026c0,0.752-0.112,1.501-0.337,2.25c-0.225,0.753-0.489,1.502-0.788,2.251
		c-0.752,2.104-1.839,5.177-3.264,9.229c-1.428,4.051-2.852,8.293-4.276,12.717c-1.428,4.428-2.666,8.629-3.714,12.604
		c-1.051,3.979-1.575,6.865-1.575,8.666c1.498-0.9,2.813-2.061,3.938-3.488c1.125-1.426,2.286-2.736,3.489-3.939h0.45
		c-1.501,2.104-3.116,4.129-4.839,6.076c-1.727,1.953-3.116,4.129-4.164,6.527h-0.225v0.227c0.147,0,0.225-0.078,0.225-0.227
		c2.1-2.1,4.051-4.311,5.852-6.639c1.8-2.324,3.601-4.615,5.402-6.865c0.45-0.598,0.9-1.273,1.351-2.025
		c0.45-0.75,0.974-1.424,1.575-2.025l1.125-1.125c-2.402,4.051-5.177,7.99-8.328,11.816c-3.151,3.826-5.778,7.838-7.878,12.041
		l7.203-8.328l-2.026,3.826l1.576-1.125l0.225,0.9c0.147-0.602,0.45-1.203,0.9-1.801c0.45-0.598,0.823-1.199,1.125-1.801h0.225
		v-0.225l-0.225,0.225h-0.45c0.299-0.9,0.598-1.648,0.9-2.25c0.299-0.598,0.823-1.199,1.576-1.801v0.9l0.45-0.9l0.675-0.451
		l0.45-0.9c0.299-0.9,0.788-1.723,1.463-2.475c0.675-0.75,1.161-1.576,1.463-2.477c0.299-0.598,0.637-1.16,1.013-1.688
		c0.373-0.525,0.71-1.088,1.013-1.689h-0.225l0.45-0.9h-0.225l1.351-2.475l0.225,0.9c0.147-0.598,0.337-1.125,0.563-1.576
		c0.225-0.449,0.485-0.9,0.788-1.35h-0.225l0.675-0.451c0.299-0.449,0.598-1.125,0.9-2.025V169.256z M96.558,158.228
		c0,0.15-0.039,0.264-0.113,0.337c-0.077,0.077-0.112,0.19-0.112,0.338h0.225V158.228z M97.233,156.427
		c0.45-0.45,0.675-0.749,0.675-0.9c1.499-2.55,2.926-5.1,4.277-7.653c1.35-2.549,2.849-5.025,4.501-7.427
		c0.299-0.45,0.823-1.161,1.576-2.139c0.749-0.975,1.125-1.762,1.125-2.363l-0.45,0.9c-0.752,0.753-1.727,1.99-2.926,3.714
		c-1.203,1.727-2.363,3.601-3.489,5.627c-1.125,2.025-2.177,3.978-3.151,5.852C98.393,153.916,97.683,155.378,97.233,156.427
		c-0.303,0.302-0.45,0.675-0.45,1.125L97.233,156.427z M100.159,160.028l0.675-1.575c-0.302,0.151-0.45,0.376-0.45,0.675
		c0,0.303-0.151,0.602-0.45,0.9H100.159z M100.609,170.607c-0.151,0.15-0.225,0.449-0.225,0.9h0.225V170.607z M101.509,168.582
		c2.1-5.702,4.614-11.329,7.54-16.881c2.926-5.55,6.337-10.653,10.241-15.306c-1.502,0.9-3.116,2.476-4.839,4.727
		c-1.727,2.251-3.376,4.691-4.952,7.315c-1.576,2.627-2.965,5.215-4.164,7.765c-1.203,2.554-2.103,4.653-2.701,6.303
		c-0.45,1.202-0.827,2.476-1.125,3.826c-0.303,1.351-0.602,2.626-0.9,3.826C100.908,169.857,101.207,169.334,101.509,168.582z
		 M108.937,143.823c-1.501,2.103-2.852,4.129-4.051,6.077c-1.203,1.951-2.328,4.129-3.376,6.527c1.199-2.1,2.437-4.126,3.714-6.077
		c1.273-1.948,2.511-3.975,3.713-6.077V143.823z M110.062,135.27l0.675-0.45h-0.225L110.062,135.27z M111.638,140.447
		c-0.151,0.15-0.302,0.225-0.45,0.225h0.45V140.447z M112.538,138.871c-0.151,0-0.225,0.077-0.225,0.226h0.225V138.871z
		 M134.821,179.16h0.225v-0.451h-0.225V179.16z M135.721,200.316c-0.303,0-0.45,0.148-0.45,0.451L135.721,200.316z M135.721,174.658
		l0.225,0.451v-0.676L135.721,174.658z M135.946,200.092c0.299-0.303,0.636-0.563,1.013-0.787c0.373-0.225,0.563-0.641,0.563-1.238
		L135.946,200.092z M137.072,169.707c-0.151,0.303-0.225,0.674-0.225,1.125h0.225V169.707z M137.072,168.807l0.45-0.9h-0.225
		L137.072,168.807z M139.097,163.179c-0.601,1.351-1.125,2.853-1.576,4.502c0.598-0.749,0.975-1.498,1.125-2.251
		C138.795,164.681,138.946,163.932,139.097,163.179z M137.521,198.967c0.148,0,0.225-0.039,0.225-0.113
		c0-0.076,0.074-0.111,0.225-0.111C137.972,198.889,137.821,198.967,137.521,198.967z M138.872,197.166
		c0-0.303,0.035-0.527,0.113-0.676c0.074-0.15,0.112-0.375,0.112-0.674l-1.351,2.025L138.872,197.166z M140.673,140.221
		c-0.9,0.9-1.502,2.025-1.801,3.376L140.673,140.221z M139.097,196.941l0.225-0.225
		C139.322,196.863,139.245,196.941,139.097,196.941z M139.547,161.378c-0.151,0.151-0.225,0.377-0.225,0.676L139.547,161.378z
		 M140.223,196.49c-0.151,0-0.225,0.035-0.225,0.113c0,0.074-0.077,0.113-0.225,0.113h0.45V196.49z M140.223,159.127
		c-0.151,0.151-0.225,0.528-0.225,1.126l0.225-0.45V159.127z M141.798,194.465h-0.225l-0.675,0.451h0.225L141.798,194.465z
		 M143.599,142.022c-0.752,0.303-1.125,0.675-1.125,1.125v0.226c0,0.151,0.074,0.303,0.225,0.45L143.599,142.022z M143.824,140.671
		c-0.151,0.303-0.225,0.675-0.225,1.125C143.747,141.498,143.824,141.122,143.824,140.671z M145.625,188.613
		c0.148-0.148,0.225-0.451,0.225-0.9C145.698,187.863,145.625,188.162,145.625,188.613z"/>
	<path d="M213.147,145.624l1.801-1.801l-0.225,1.351l0.675-1.351h-0.45l0.45-0.676v0.676l0.45-0.9h0.225l0.9-1.576l0.45,0.226
		c-2.103,5.254-4.691,10.279-7.765,15.08c-3.078,4.804-6.116,9.604-9.116,14.405c-1.653,2.701-3.303,5.441-4.952,8.215
		c-1.653,2.779-3.376,5.441-5.177,7.99c-2.25,3.303-4.99,7.092-8.215,11.367c-3.229,4.277-6.116,7.84-8.666,10.691
		c-0.752,0.75-1.463,1.199-2.138,1.35c-0.675,0.148-1.463,0.227-2.363,0.227c-3.302,0-6.003-0.865-8.103-2.59
		c-2.1-1.727-3.151-4.314-3.151-7.764c0-6.154,0.602-12.342,1.801-18.57c1.199-6.225,2.624-12.189,4.276-17.893
		c1.199-4.502,2.325-9.003,3.376-13.505c1.048-4.501,1.723-9.077,2.025-13.729v-0.9c0-0.598-0.112-1.16-0.337-1.688
		c-0.225-0.523-0.338-1.086-0.338-1.688c0-0.45,0.26-0.788,0.788-1.013c0.524-0.226,0.936-0.412,1.238-0.563
		c4.952,0.753,9.189,2.477,12.717,5.177c3.524,2.701,5.29,6.753,5.29,12.154c0,4.354-0.602,8.479-1.801,12.38
		c-1.203,3.903-2.402,7.878-3.601,11.929l-4.952,16.656c0,0.15-0.039,0.225-0.113,0.225c-0.077,0-0.112,0.076-0.112,0.225v0.225
		l0.225,0.451c3.151-3.9,6.112-7.99,8.891-12.268c2.774-4.275,5.588-8.514,8.44-12.716c1.649-2.55,3.45-4.952,5.402-7.202
		c1.948-2.251,3.826-4.576,5.627-6.978c1.048-1.199,1.987-2.55,2.813-4.052c0.823-1.498,1.835-2.849,3.039-4.052l-1.125,2.026
		l1.575-1.801c-1.8,3.003-3.713,5.965-5.739,8.891s-3.791,6.042-5.29,9.341c0.75-0.9,1.499-1.801,2.251-2.701
		c0.749-0.9,1.424-1.875,2.026-2.926c1.199-1.948,2.286-3.975,3.264-6.077c0.974-2.1,2.286-3.975,3.938-5.627L213.147,145.624z
		 M168.582,201.443h0.45c1.649-6.605,3.412-13.129,5.29-19.582c1.875-6.451,3.714-12.979,5.514-19.583
		c-1.35,2.402-2.328,4.917-2.926,7.54c-0.602,2.627-1.277,5.217-2.026,7.766c-1.203,3.904-2.402,7.844-3.601,11.816
		C170.081,193.375,169.18,197.391,168.582,201.443z M184.338,97.457l1.125,0.225v1.575c0.45-0.147,0.974-0.524,1.576-1.125
		l2.251,1.125l-0.45,1.576l2.701,0.45v2.251l1.125-0.225c1.498,1.051,2.251,2.328,2.251,3.826c0,2.701-0.415,5.29-1.238,7.765
		c-0.826,2.476-1.238,5.064-1.238,7.766c0,1.501,0.148,3.003,0.45,4.501c0.299,1.502,0.45,3.004,0.45,4.502
		c-0.752,0.45-1.428,0.675-2.026,0.675c-0.752,0-1.463-0.225-2.138-0.675s-1.389-0.598-2.138-0.45
		c-1.351-0.749-2.627-1.913-3.826-3.489c-1.203-1.575-2.29-3.299-3.264-5.177c-0.978-1.874-1.727-3.749-2.251-5.627
		c-0.527-1.874-0.788-3.636-0.788-5.289c0-0.9,0.147-2.173,0.45-3.826c0.299-1.649,0.749-3.299,1.35-4.952
		c0.598-1.649,1.312-3.112,2.139-4.389c0.823-1.273,1.762-1.913,2.813-1.913L184.338,97.457z M177.135,194.689
		c0.299-0.301,0.675-0.639,1.125-1.012c0.45-0.377,0.823-0.715,1.125-1.014c4.502-6.752,9.003-13.393,13.505-19.92
		c4.501-6.526,9.077-13.167,13.73-19.918c-1.801,1.952-3.602,3.903-5.402,5.852c-1.801,1.952-3.303,3.978-4.502,6.077
		c-1.952,3.152-3.938,6.267-5.964,9.341c-2.026,3.076-4.016,6.189-5.965,9.34c-1.203,1.953-2.514,3.791-3.938,5.516
		C179.421,190.678,178.183,192.588,177.135,194.689z M180.511,159.803h-0.45v1.351c0.148-0.148,0.225-0.338,0.225-0.563
		C180.286,160.366,180.36,160.106,180.511,159.803z M187.714,185.236c-0.602,0.152-1.013,0.451-1.238,0.9
		c-0.225,0.451-0.489,0.9-0.788,1.352L187.714,185.236z M190.64,181.41c-1.501,0.303-2.25,0.979-2.25,2.025v0.451L190.64,181.41z
		 M196.942,172.633l0.9-0.676c0.299-0.598,0.598-1.16,0.9-1.688c0.299-0.523,0.598-1.16,0.9-1.914
		c-0.303,0.754-0.714,1.463-1.238,2.139C197.877,171.17,197.392,171.883,196.942,172.633z M202.794,165.43l0.675-0.676
		c-0.302,0-0.527-0.073-0.675-0.225c0.299-0.598,0.563-1.16,0.788-1.688c0.225-0.523,0.485-1.086,0.788-1.688l-2.701,3.826
		l1.125-0.45V165.43z M207.521,157.552h-0.45l0.675-1.125v-0.9c-0.9,1.202-1.575,2.328-2.025,3.376l0.9-0.45l0.45-0.9
		c0.148,0.151,0.225,0.45,0.225,0.9C207.443,158.305,207.521,158.002,207.521,157.552z M206.621,159.127l0.675-0.675h-0.45
		C206.694,158.604,206.621,158.829,206.621,159.127z M207.971,156.652h-0.225v0.45C207.894,156.955,207.971,156.803,207.971,156.652
		z M209.546,153.726c0-0.45,0.074-0.861,0.225-1.238c0.148-0.372,0.225-0.787,0.225-1.237l-2.026,3.826l0.9-0.45v0.675l0.45-0.675
		h-0.45L209.546,153.726z M209.546,153.726v0.675l0.45-0.675c0-0.45,0.074-0.749,0.225-0.9h-0.225v0.9H209.546z M213.147,145.624
		c0,0.601-0.302,1.202-0.9,1.8l0.9-0.225l0.225-0.9L213.147,145.624z M213.823,146.973l-0.45,0.226l-0.225,0.675L213.823,146.973z
		 M213.373,144.273c0.299-0.598,0.524-1.126,0.675-1.576c0.148-0.45,0.299-0.974,0.45-1.575l0.45,0.225
		C214.797,142.099,214.273,143.074,213.373,144.273z M215.624,142.922v-0.226h-0.225v0.45L215.624,142.922z M215.849,142.022v0.675
		h-0.225L215.849,142.022z M216.074,142.697h-0.225v0.226L216.074,142.697z"/>
	<path d="M226.428,121.54c-1.351,11.106-4.354,21.495-9.003,31.174c-4.652,9.678-10.206,19.019-16.656,28.023
		c-1.35,1.799-2.778,3.527-4.276,5.176c-1.501,1.652-3.302,3.078-5.402,4.277l-7.878-2.701l0.45-0.676
		c1.952-1.949,3.679-3.939,5.177-5.965c1.502-2.025,3-4.164,4.502-6.414c11.254-17.855,18.755-37.212,22.508-58.071
		c-2.103-1.498-4.354-3.038-6.752-4.614c-2.402-1.575-4.614-3.337-6.64-5.289c-2.026-1.948-3.714-4.086-5.064-6.415
		c-1.351-2.325-2.026-4.987-2.026-7.99c0-1.499,0.299-3.039,0.9-4.614c0.598-1.576,1.463-3.039,2.588-4.389
		c1.125-1.35,2.398-2.437,3.827-3.264c1.424-0.823,2.961-1.238,4.614-1.238c1.948,0,3.827,0.45,5.627,1.351
		c3.749,1.653,6.714,4.09,8.891,7.315c2.173,3.229,3.489,6.791,3.939,10.691c0.299,2.553,0.563,5.029,0.788,7.427
		c0.225,2.402,0.412,4.878,0.563,7.428c3.899,2.25,7.8,4.578,11.704,6.977c3.9,2.402,7.502,5.104,10.804,8.104
		c3.601,3.453,5.401,7.505,5.401,12.154c0,3.453-0.787,7.578-2.363,12.379c-1.575,4.804-2.965,8.93-4.164,12.379
		c-1.051,3.004-2.215,6.341-3.488,10.017c-1.276,3.678-2.477,7.428-3.602,11.254s-2.103,7.613-2.926,11.365
		c-0.826,3.75-1.238,7.203-1.238,10.354c0,3.299,0.524,6.225,1.576,8.779l6.303,1.574l-0.226,1.801l0.226,0.227l1.125-1.352h1.801
		c0.449,0.9,0.675,1.801,0.675,2.701c0,1.049-0.376,1.949-1.126,2.701c-0.752,0.748-1.652,1.35-2.7,1.801
		c-1.052,0.449-2.139,0.748-3.264,0.9c-1.126,0.146-2.138,0.225-3.038,0.225c-3.602,0-6.718-0.9-9.342-2.701
		c-2.626-1.801-4.765-4.051-6.415-6.752c-1.653-2.701-2.852-5.705-3.601-9.004c-0.752-3.303-1.125-6.527-1.125-9.678
		c0-3.752,0.524-7.99,1.576-12.717c1.048-4.727,2.325-9.566,3.826-14.518c1.499-4.952,3.113-9.752,4.839-14.405
		c1.724-4.649,3.264-8.778,4.615-12.38c0.748-1.649,1.574-3.974,2.475-6.978c0.9-3,1.352-5.324,1.352-6.978
		c0-2.7-1.203-4.727-3.602-6.077C230.778,123.566,228.528,122.44,226.428,121.54z M201.089,85.302l-1.368,2.026l0.45,0.45
		C200.478,86.579,200.783,85.752,201.089,85.302z M200.994,175.109l-0.225,0.225h0.225V175.109z M202.721,163.405
		c0.598-0.3,1.013-0.788,1.238-1.464c0.225-0.675,0.412-1.385,0.563-2.138L202.721,163.405z M205.911,91.379
		c0.299-0.598,0.485-1.199,0.563-1.801c0.074-0.598,0.26-1.273,0.563-2.026c-0.9,0.9-1.351,1.801-1.351,2.701
		C205.686,90.704,205.76,91.081,205.911,91.379z M216.075,107.36c0-0.45,0.035-0.936,0.112-1.463
		c0.074-0.524,0.113-1.013,0.113-1.463c0-1.048-0.078-2.399-0.225-4.052c-0.151-1.649-0.376-3.299-0.675-4.952
		c-0.303-1.649-0.675-3.225-1.125-4.727c-0.45-1.498-0.978-2.624-1.576-3.376c-2.402,2.103-3.601,4.652-3.601,7.652
		c0,2.402,0.637,4.766,1.913,7.09C212.283,104.398,213.972,106.161,216.075,107.36z M221.927,128.292
		c-0.151,0-0.376,0.376-0.675,1.125c-1.653,5.553-3.454,10.994-5.402,16.318c-1.952,5.328-4.129,10.617-6.527,15.868
		c1.199-1.351,2.476-3.489,3.826-6.415s2.662-6.077,3.939-9.453c1.273-3.376,2.325-6.675,3.151-9.903
		C221.062,132.607,221.624,130.092,221.927,128.292z M210.673,145.848c0.598-1.199,1.086-2.286,1.463-3.264
		c0.373-0.974,0.71-2.061,1.013-3.264l-0.45,0.226L210.673,145.848z M213.824,135.945c-0.752,0.9-0.978,1.878-0.675,2.926
		L213.824,135.945z M214.499,134.144l-0.225,0.676C214.421,134.671,214.499,134.447,214.499,134.144z M214.949,133.019h-0.225
		c0,0.45-0.078,0.752-0.225,0.9C214.798,133.621,214.949,133.321,214.949,133.019z M215.399,130.318l0.675-0.9h-0.225
		L215.399,130.318z M216.525,127.617l-0.225-0.45v0.676L216.525,127.617z M222.377,125.816h-0.225v0.9h0.225V125.816z
		 M222.827,123.34h-0.225v0.676h0.225V123.34z M238.808,143.373c-0.753,0.9-1.351,2.025-1.801,3.376s-0.826,2.627-1.125,3.826
		l-10.804,32.861l-2.476,9.004c1.048-2.1,1.913-4.277,2.588-6.527c0.675-2.25,1.385-4.502,2.138-6.752
		c1.948-6,3.938-11.929,5.964-17.782C235.319,155.527,237.154,149.527,238.808,143.373z M227.329,196.717h0.45
		c0-0.303-0.039-0.49-0.113-0.564c-0.077-0.076-0.112-0.264-0.112-0.563C227.402,195.889,227.329,196.266,227.329,196.717z
		 M242.184,147.199l-11.028,32.411c-0.753,2.555-1.352,5.104-1.801,7.652c-0.451,2.555-0.979,5.1-1.576,7.654l0.45-0.451
		c1.047-3.449,1.987-6.865,2.813-10.24c0.823-3.377,1.836-6.787,3.039-10.242c1.498-4.5,3.15-9.002,4.951-13.504
		c1.801-4.501,3.074-9.15,3.826-13.954L242.184,147.199z M231.38,205.719c0.299-1.652,0.563-3.229,0.787-4.727
		c0.226-1.502,0.486-3.076,0.789-4.727c1.199-5.701,2.7-11.289,4.501-16.768c1.801-5.477,3.675-10.99,5.627-16.543
		c1.199-3.45,2.398-6.9,3.601-10.354c1.199-3.45,1.949-6.978,2.252-10.579h-0.451c-2.701,7.652-5.289,15.306-7.765,22.958
		c-2.476,7.653-4.917,15.305-7.315,22.958c-0.752,2.252-1.314,4.502-1.688,6.752c-0.377,2.252-0.563,4.576-0.563,6.979
		c0,0.748,0,1.424,0,2.025C231.155,204.291,231.229,204.967,231.38,205.719z M232.505,185.688v-0.225l-0.225,0.225H232.505z
		 M234.756,177.584l0.226-0.225h-0.226V177.584z M235.206,175.783l0.225,0.225v-0.225H235.206z M235.431,197.842v-0.451h-0.225
		C235.206,197.539,235.28,197.689,235.431,197.842z M235.656,174.434l0.226,0.225v-0.225H235.656z M235.882,195.141h-0.226v0.449
		h0.226V195.141z M237.231,190.189h0.226v-0.676h-0.226V190.189z M237.907,187.488h-0.225v0.674h0.225V187.488z M238.808,165.43
		l-0.225,0.225h0.225V165.43z M238.808,184.563c-0.151,0-0.225,0.15-0.225,0.449h0.225V184.563z M239.258,142.022h-0.226v0.9
		C239.181,142.775,239.258,142.472,239.258,142.022z M239.258,182.986l-0.226,0.225h0.226V182.986z M239.708,180.961l-0.225,0.449
		l0.449,0.225C239.933,181.336,239.855,181.111,239.708,180.961z M240.383,179.385h-0.226v0.676h0.226V179.385z M241.733,175.334
		v-0.225h-0.225C241.509,175.26,241.582,175.334,241.733,175.334z M242.184,155.751l-0.226,0.226h0.226V155.751z M242.184,173.758
		c-0.151,0-0.226,0.078-0.226,0.225L242.184,173.758z M243.31,145.398h-0.451v0.676L243.31,145.398z M243.084,171.057l0.226-0.225
		h-0.226V171.057z M243.534,169.707c0.147,0,0.225-0.148,0.225-0.451h-0.225V169.707z M243.984,168.131h0.226v-0.45h-0.226V168.131z
		 M246.685,160.928h-0.225v0.45h0.225V160.928z M246.91,159.803h0.226v-0.226h-0.226V159.803z M247.36,158.002l0.225,0.226v-0.226
		H247.36z M250.512,149.224V149l-0.226,0.225H250.512z"/>
	<path d="M314.656,129.643c2.549-0.45,5.025-0.862,7.427-1.238c2.398-0.373,4.875-0.563,7.428-0.563
		c5.251,0,10.017,0.488,14.293,1.463c4.276,0.978,8.215,3.64,11.816,7.99c0.45,0.45,1.048,1.164,1.801,2.138
		c0.749,0.979,1.498,1.991,2.251,3.039c0.749,1.052,1.386,2.103,1.913,3.151c0.523,1.051,0.787,1.8,0.787,2.25
		c0,0.602-0.302,1.502-0.9,2.701c-0.899,0.151-1.765,0-2.588-0.45c-0.826-0.45-1.653-0.974-2.476-1.575
		c-0.827-0.598-1.576-1.273-2.251-2.025c-0.676-0.75-1.315-1.351-1.913-1.801c-1.351-1.199-2.813-1.913-4.39-2.139
		c-1.575-0.225-3.189-0.338-4.839-0.338c-2.251,0-4.878,0.19-7.878,0.563c-3.003,0.376-6.042,0.938-9.115,1.688
		c-3.077,0.753-6.004,1.653-8.778,2.701c-2.778,1.052-5.064,2.177-6.865,3.376c-0.302,0-0.675,0.226-1.125,0.676v2.926
		c0,1.952,0.112,4.09,0.338,6.415c0.225,2.328,0.861,4.314,1.913,5.964c0.45,0.753,1.273,1.878,2.476,3.376
		c1.199,1.502,1.801,2.627,1.801,3.377c0,0.449-0.225,0.865-0.675,1.236c-0.45,0.377-0.9,0.564-1.351,0.564h-0.226l-0.45-0.227
		c-2.251-0.598-4.09-1.238-5.515-1.912c-1.428-0.676-2.627-1.463-3.601-2.363c-0.978-0.9-1.913-1.949-2.813-3.152
		c-0.9-1.199-2.026-2.774-3.376-4.727c-1.203,1.653-2.026,3.527-2.477,5.626c-0.45,2.104-0.675,4.203-0.675,6.303
		c0,0.752,0.035,1.502,0.112,2.25c0.074,0.754,0.261,1.428,0.563,2.027c0.45,1.201,1.463,2.176,3.039,2.926
		c1.575,0.752,3.299,1.35,5.177,1.801c1.874,0.449,3.714,0.752,5.515,0.9c1.8,0.15,3.225,0.225,4.276,0.225
		c4.051,0,8.138-0.563,12.267-1.688c4.125-1.127,7.99-2.512,11.592-4.164c11.852-5.701,22.019-13.167,30.498-22.396
		c8.476-9.229,14.665-20.145,18.568-32.749c1.048-3.299,1.875-6.675,2.477-10.129c0.598-3.449,0.899-6.899,0.899-10.353
		c0-5.701-0.64-11.254-1.913-16.656c-1.276-5.402-3.414-10.501-6.414-15.306c-2.104-3.299-4.691-6.376-7.766-9.228
		c-3.077-2.849-6.453-5.363-10.128-7.54c-3.679-2.173-7.506-3.974-11.479-5.402c-3.978-1.424-7.843-2.363-11.592-2.813
		c-1.801-0.299-3.64-0.563-5.514-0.788c-1.879-0.225-3.792-0.337-5.74-0.337c-3.752,0-7.505,0.264-11.254,0.788
		c-3.752,0.528-7.428,1.164-11.028,1.913c-4.052,0.9-8.254,2.441-12.604,4.614c-4.354,2.177-8.328,4.878-11.929,8.103
		c-3.602,3.229-6.527,6.903-8.779,11.029c-2.25,4.129-3.375,8.44-3.375,12.942c0,3.454,0.861,6.116,2.588,7.99
		c1.723,1.878,3.488,4.09,5.289,6.64c-0.303,0.602-0.675,0.9-1.125,0.9s-0.826-0.074-1.125-0.225
		c-2.402-0.9-4.615-2.173-6.641-3.826c-2.025-1.649-3.791-3.563-5.289-5.739c-1.502-2.174-2.666-4.537-3.488-7.09
		c-0.826-2.55-1.238-5.099-1.238-7.652c0-1.949,0.373-4.199,1.125-6.752c1.199-4.052,3.151-7.952,5.853-11.704
		c2.7-3.749,5.627-7.051,8.778-9.903c3.299-2.849,6.977-5.325,11.028-7.428c4.052-2.1,8.289-3.749,12.717-4.952
		c4.425-1.199,8.891-2.1,13.393-2.701c4.501-0.598,8.926-0.9,13.279-0.9c6.303,0,12.64,0.939,19.02,2.813
		c6.376,1.878,12.453,4.502,18.231,7.878c5.774,3.376,11.063,7.354,15.867,11.929c4.801,4.579,8.853,9.566,12.154,14.968
		c3.9,6.453,7.276,13.392,10.129,20.82c2.849,7.427,4.276,14.967,4.276,22.621c0,3.903-0.151,7.392-0.45,10.466
		c-0.303,3.077-0.788,6.003-1.463,8.778c-0.675,2.778-1.463,5.627-2.363,8.553s-2.025,6.189-3.376,9.791
		c-1.203,3.003-2.701,5.852-4.502,8.553s-3.601,5.328-5.401,7.878c-2.701,3.601-6.042,7.279-10.017,11.029
		c-3.978,3.752-8.292,7.203-12.941,10.354c-4.653,3.15-9.453,5.852-14.405,8.104c-4.952,2.25-9.604,3.748-13.955,4.5
		c-2.103,0.299-4.202,0.563-6.302,0.789c-2.104,0.225-4.203,0.338-6.303,0.338c-3.15,0-6.267-0.377-9.341-1.127
		c-3.077-0.752-6.115-1.652-9.115-2.699c-4.354-1.654-8.181-3.904-11.479-6.754c-3.302-2.848-6.228-6.225-8.778-10.127
		c-1.652-2.701-3.076-5.516-4.275-8.441c-1.203-2.926-1.801-5.964-1.801-9.116c0-3.45,0.71-6.563,2.139-9.341
		c1.424-2.774,2.961-5.251,4.613-7.428c1.649-2.173,3.187-3.938,4.614-5.289c1.425-1.351,2.138-2.324,2.138-2.926v-2.477
		c0-2.7,0.373-5.627,1.126-8.777c0.749-3.151,1.649-6.338,2.701-9.566c1.048-3.225,2.173-6.376,3.376-9.453
		c1.199-3.074,2.251-5.887,3.151-8.44c0.45-1.498,1.013-3.264,1.688-5.289c0.676-2.026,1.313-4.125,1.913-6.302
		c0.599-2.173,1.126-4.312,1.576-6.415c0.45-2.1,0.675-3.827,0.675-5.177c0-1.948-0.303-3.601-0.9-4.952
		c-0.602-1.35-1.315-2.549-2.138-3.601c-0.827-1.048-1.541-2.061-2.139-3.039c-0.602-0.974-0.9-2.138-0.9-3.489
		c0-1.048,0.524-1.576,1.576-1.576c0.749,0,1.35,0.039,1.8,0.113c0.45,0.077,1.049,0.337,1.801,0.788
		c2.251,1.351,4.312,3.341,6.189,5.965c1.875,2.627,3.45,5.44,4.728,8.44c1.272,3.003,2.285,6.077,3.038,9.228
		c0.749,3.151,1.125,6.003,1.125,8.553c0,6.604-0.9,12.829-2.7,18.682C318.032,117.263,316.306,123.34,314.656,129.643z
		 M270.766,56.717l-0.226,0.225c0.148,0,0.226-0.035,0.226-0.113c0-0.074,0.073-0.112,0.226-0.112H270.766z M271.892,55.142
		l0.449-0.45L271.892,55.142z M282.47,45.914c-1.502,0.752-3.264,1.878-5.289,3.376c-2.025,1.502-3.415,2.926-4.164,4.276
		c-0.151,0.151-0.189,0.264-0.113,0.338c0.074,0.077,0.035,0.19-0.111,0.337L282.47,45.914z M273.241,64.37
		c1.649-1.949,3.377-3.827,5.178-5.627c1.8-1.801,3.674-3.45,5.627-4.952c0.598-0.45,1.498-1.013,2.7-1.688
		c1.199-0.675,1.948-1.386,2.251-2.138c-1.801,1.203-3.453,2.216-4.951,3.039c-1.502,0.827-2.892,1.766-4.164,2.813
		c-1.277,1.052-2.516,2.251-3.715,3.601c-1.202,1.351-2.328,3.078-3.375,5.177L273.241,64.37z M274.817,56.492h0.225
		c0.749-0.299,1.125-0.524,1.125-0.675c1.199-0.9,2.325-1.801,3.377-2.701c1.048-0.9,2.1-1.875,3.15-2.926
		c-0.303,0-0.826,0.264-1.575,0.788c-0.753,0.528-1.54,1.125-2.363,1.801c-0.827,0.675-1.614,1.389-2.363,2.138
		C275.64,55.669,275.116,56.193,274.817,56.492z M292.599,145.398c-0.152-0.147-0.303-0.225-0.451-0.225l-2.926,3.376l0.226,0.225
		L292.599,145.398z M292.599,152.151l0.225,0.225l0.675-1.125l-0.675-0.226v1.126H292.599z M293.048,159.353h0.226v-0.226
		C293.122,159.127,293.048,159.206,293.048,159.353z M294.849,156.202h-0.225c-0.303,0.45-0.527,0.865-0.676,1.238
		c-0.15,0.376-0.302,0.788-0.45,1.237C294.398,158.228,294.849,157.405,294.849,156.202z M350.668,188.162
		c0.148,0.152,0.373,0.227,0.676,0.227l0.675-0.451C351.717,188.09,351.267,188.162,350.668,188.162z M351.344,177.359
		c3.749-2.25,7.389-4.801,10.916-7.652c3.524-2.849,6.488-6.078,8.891-9.679c-1.351,1.502-2.739,2.892-4.164,4.164
		c-1.428,1.276-2.891,2.515-4.389,3.714c-1.952,1.652-3.904,3.15-5.853,4.502C354.794,173.758,352.993,175.41,351.344,177.359z
		 M384.88,158.677c-0.752,0.303-1.839,1.315-3.264,3.039c-1.428,1.727-2.44,2.965-3.038,3.714
		c-3.453,3.904-7.167,7.466-11.142,10.691c-3.978,3.229-8.067,6.342-12.267,9.342c-0.303,0.15-0.602,0.527-0.9,1.125
		c6.303-3,12.115-6.865,17.443-11.592C377.038,170.27,381.427,164.833,384.88,158.677z M357.646,178.484l-1.125,0.451l0.45,0.225
		C357.421,179.16,357.646,178.936,357.646,178.484z M358.771,177.809h0.45c3.15-2.25,5.887-4.424,8.215-6.527
		c2.325-2.1,4.688-4.726,7.09-7.876c-2.553,1.501-5.215,3.752-7.99,6.751C363.758,173.16,361.17,175.709,358.771,177.809z
		 M370.7,178.936c-0.45,0.449-0.9,0.826-1.351,1.125c-0.45,0.303-0.9,0.676-1.351,1.125c0.749-0.299,1.649-0.975,2.701-2.025
		V178.936z M372.951,176.908l-1.125,1.127l0.899-0.451l0.45-0.676H372.951z M373.401,176.684c0.9-0.299,1.948-1.047,3.151-2.25
		c1.199-1.199,2.025-2.252,2.476-3.152L373.401,176.684z M376.327,161.604l-0.225-0.226c-0.151,0.151-0.226,0.45-0.226,0.9
		L376.327,161.604z"/>
	<path d="M420.216,132.343l4.052,1.801c1.351-1.801,2.887-3.826,4.614-6.077c1.723-2.251,3.601-4.424,5.627-6.527
		c2.025-2.1,4.164-3.861,6.414-5.289c2.251-1.425,4.649-2.139,7.203-2.139c2.398,0,4.874,0.676,7.428,2.026
		c2.549,1.351,4.839,3.077,6.864,5.177c2.026,2.103,3.676,4.428,4.952,6.978c1.272,2.553,1.913,5.028,1.913,7.427
		c0,4.502-0.826,9.155-2.476,13.955c-1.653,4.805-3.753,9.492-6.303,14.067c-2.553,4.579-5.479,8.856-8.778,12.831
		c-3.302,3.977-6.526,7.465-9.678,10.465c-1.952,1.801-3.904,3.377-5.853,4.727c-1.951,1.352-4.276,2.252-6.978,2.701
		c-0.752,0.148-1.54,0.26-2.363,0.338c-0.826,0.074-1.614,0.113-2.363,0.113c-3.601,0-6.903-0.676-9.903-2.027
		c-3.003-1.35-5.592-3.186-7.765-5.514c-2.178-2.324-3.865-5.064-5.064-8.215c-1.203-3.152-1.801-6.451-1.801-9.904v-2.701
		c0-2.251,0.563-5.324,1.688-9.228c1.125-3.9,2.588-7.688,4.389-11.367c1.801-3.675,3.938-6.864,6.415-9.565
		C414.927,133.694,417.515,132.343,420.216,132.343z M412.563,141.572l3.602-4.052c-0.9,0.45-1.614,1.052-2.139,1.801
		C413.499,140.074,413.014,140.823,412.563,141.572z M414.589,154.176h-0.45v0.45L414.589,154.176z M416.165,184.336
		c5.099-1.35,9.903-3.861,14.404-7.539c4.502-3.676,8.476-7.914,11.93-12.717c3.45-4.801,6.376-9.938,8.777-15.418
		c2.399-5.476,4.052-10.691,4.952-15.643c0.147-0.749,0.299-1.498,0.45-2.251c0.147-0.749,0.225-1.498,0.225-2.251
		c0-1.048-0.225-2.025-0.675-2.926c-1.801,0-4.017,1.013-6.64,3.038c-2.627,2.026-5.142,4.428-7.54,7.203
		c-2.402,2.778-4.467,5.627-6.189,8.553c-1.728,2.926-2.589,5.289-2.589,7.09c0,2.104,1.048,3.903,3.151,5.402
		c-0.602,0.9-1.351,1.351-2.251,1.351c-3.151,0-5.627-1.014-7.428-3.039s-3.527-4.087-5.177-6.189
		c-1.652,4.202-3.151,8.44-4.502,12.717c-1.35,4.276-2.025,8.665-2.025,13.167c0,1.654,0.074,3.229,0.226,4.727
		C415.412,181.111,415.715,182.688,416.165,184.336z M421.342,140.897l0.225-0.45c-1.502,1.501-2.701,3.15-3.602,4.951
		s-1.727,3.679-2.476,5.627c0.299-0.45,0.749-1.125,1.351-2.025c0.598-0.9,1.238-1.913,1.913-3.039
		c0.676-1.125,1.273-2.138,1.801-3.038C421.078,142.022,421.342,141.346,421.342,140.897z M416.39,142.472
		c1.048-0.749,1.724-1.801,2.025-3.151L416.39,142.472z M430.119,132.569c0.148-0.45,0.676-1.199,1.576-2.251
		c0.9-1.048,1.913-2.139,3.038-3.264c1.126-1.125,2.212-2.212,3.264-3.264c1.048-1.048,1.801-1.801,2.251-2.251h-0.45
		c-3.903,3.303-7.354,7.129-10.354,11.479L430.119,132.569z M431.695,143.147c2.25-3,4.463-5.926,6.64-8.777
		c2.173-2.849,4.536-5.55,7.09-8.104v-0.225H445.2c-0.151,0-0.226,0.038-0.226,0.112c0,0.077-0.077,0.112-0.225,0.112
		c-1.203,0.9-2.515,1.991-3.939,3.264c-1.428,1.277-2.739,2.701-3.938,4.276c-1.203,1.576-2.29,3.151-3.264,4.727
		C432.631,140.109,431.994,141.649,431.695,143.147z M433.046,134.37c0.598-0.9,1.237-1.724,1.913-2.477
		c0.675-0.749,1.312-1.498,1.913-2.25c-0.45,0.449-1.203,1.237-2.251,2.363C433.569,133.131,433.046,133.919,433.046,134.37z
		 M458.93,155.977c-2.104,4.051-4.467,7.916-7.09,11.591c-2.627,3.678-5.367,7.315-8.216,10.917
		c-0.303,0.303-0.563,0.641-0.788,1.014c-0.225,0.375-0.414,0.787-0.563,1.238c1.048-1.352,2.55-3.039,4.502-5.064
		c1.948-2.027,3.826-4.238,5.627-6.641c1.801-2.399,3.337-4.727,4.614-6.977C458.289,159.803,458.93,157.778,458.93,155.977z
		 M442.724,169.482c1.048-0.9,1.948-1.95,2.701-3.152c0.749-1.199,1.498-2.476,2.251-3.826c-0.602,0.752-1.576,1.99-2.926,3.714
		C443.399,167.945,442.724,169.031,442.724,169.482z M443.85,173.533l-0.226-0.225C443.624,173.459,443.698,173.533,443.85,173.533z
		 M446.325,170.832c0.749-1.199,1.575-2.398,2.476-3.601c0.9-1.199,1.724-2.398,2.476-3.602l-5.177,6.978v0.225H446.325z
		 M451.502,162.955c-0.151,0.15-0.226,0.376-0.226,0.675L451.502,162.955z M454.878,168.582h0.226v-0.227L454.878,168.582z"/>
</g>
</svg>
